<svg xmlns="http://www.w3.org/2000/svg" xmlns:xlink="http://www.w3.org/1999/xlink" width="13.237" height="11.712" viewBox="0 0 13.237 11.712">
  <defs>
    <clipPath id="clip-path">
      <rect id="長方形_23005" data-name="長方形 23005" width="13.237" height="11.712" transform="translate(0 0)" fill="#fff"/>
    </clipPath>
  </defs>
  <g id="グループ_7220" data-name="グループ 7220" clip-path="url(#clip-path)">
    <path id="パス_4163" data-name="パス 4163" d="M41.658,6.506l-4.937,4.937a.919.919,0,1,1-1.3-1.3l4.287-4.287L35.422,1.57a.919.919,0,0,1,1.3-1.3l4.937,4.937a.919.919,0,0,1,0,1.3" transform="translate(-28.69 0)" fill="#fff"/>
    <line id="線_34" data-name="線 34" x2="5.903" transform="translate(0.919 5.856)" fill="#1a1311"/>
    <path id="パス_4164" data-name="パス 4164" d="M6.822,28.693H.919a.919.919,0,1,1,0-1.838h5.9a.919.919,0,1,1,0,1.838" transform="translate(0 -21.918)" fill="#fff"/>
  </g>
</svg>
