<svg data-name="コンポーネント 10 – 1" xmlns="http://www.w3.org/2000/svg" width="290" height="60"><defs><clipPath id="a"><path data-name="長方形 23005" fill="#fff" d="M0 0h13.237v11.712H0z"/></clipPath></defs><text transform="translate(145 36)" fill="#fff" font-size="14" font-family="NotoSansJP-Bold, Noto Sans JP" font-weight="700"><tspan x="-69.79" y="0">お問い合わせフォーム</tspan></text><g data-name="長方形 23004" fill="none" stroke="#fff" stroke-width=".5"><rect width="290" height="60" rx="30" stroke="none"/><rect x=".25" y=".25" width="289.5" height="59.5" rx="29.75"/></g><g data-name="グループ 7221"><g data-name="グループ 7220" transform="translate(252.386 24.144)" clip-path="url(#a)"><path data-name="パス 4163" d="M12.968 6.506l-4.937 4.937a.92.92 0 11-1.3-1.3l4.287-4.287L6.732 1.57a.92.92 0 011.3-1.3l4.937 4.937a.919.919 0 010 1.3" fill="#fff"/><path data-name="線 34" fill="#1a1311" d="M.919 5.856h5.903"/><path data-name="パス 4164" d="M6.822 6.775H.919a.919.919 0 110-1.838h5.9a.919.919 0 110 1.838" fill="#fff"/></g></g></svg>